# xmcd
#
# Track frame offsets:
#	150
#	18198
#	36150
#	50034
#	64993
#	79713
#	95133
#	104167
#	114903
#	130895
#	149260
#
# Disc length: 2264 seconds
# Revision: 0
# Processed by: cddbd v1.5.2PL0 Copyright (c) Steve Scherf et al.
# Submitted via: dBpowerAMP V12.0
#
DISCID=9c08d60b
DTITLE=RB Stone - Some Call It Freedom
DYEAR=2016
DGENRE=Blues
TTITLE0=Hill Country Stomp
TTITLE1=Some Call It Freedom
TTITLE2=35 Miles To Mobile
TTITLE3=Mind Your Bizzness
TTITLE4=Yoyo Lover
TTITLE5=Another Thief
TTITLE6=Nickajack
TTITLE7=You Don't Want Me
TTITLE8=Won't Stop Rockin'
TTITLE9=Weapons Of Mass Persuasion
TTITLE10=Standin' On Top Of The World
EXTD=
EXTT0=
EXTT1=
EXTT2=
EXTT3=
EXTT4=
EXTT5=
EXTT6=
EXTT7=
EXTT8=
EXTT9=
EXTT10=
PLAYORDER=
